<?xml version="1.0" encoding="UTF-8"?><svg xmlns="http://www.w3.org/2000/svg" xmlns:xlink="http://www.w3.org/1999/xlink" contentScriptType="text/ecmascript" width="375" zoomAndPan="magnify" contentStyleType="text/css" viewBox="0 0 375 374.999991" height="374.999991" preserveAspectRatio="xMidYMid meet" version="1.0"><defs><clipPath id="clip-0"><path d="M 222 0 L 342.75 0 L 342.75 281 L 222 281 Z M 222 0 " clip-rule="nonzero"/></clipPath><clipPath id="clip-1"><path d="M 37.5 140 L 131 140 L 131 375 L 37.5 375 Z M 37.5 140 " clip-rule="nonzero"/></clipPath><clipPath id="clip-2"><path d="M 37.5 140 L 131 140 L 131 199 L 37.5 199 Z M 37.5 140 " clip-rule="nonzero"/></clipPath></defs><g clip-path="url(#clip-0)"><path fill="rgb(99.609375%, 96.469116%, 91.758728%)" d="M 222.191406 -0.00390625 L 343.351562 69.949219 L 343.351562 280.199219 L 222.191406 210.246094 L 222.191406 -0.00390625 " fill-opacity="1" fill-rule="nonzero"/></g><path fill="rgb(1.568604%, 2.349854%, 2.349854%)" d="M 245.003906 158.261719 L 317.417969 200.050781 L 317.417969 206.082031 L 245.003906 164.292969 L 245.003906 158.261719 " fill-opacity="1" fill-rule="nonzero"/><path fill="rgb(1.568604%, 2.349854%, 2.349854%)" d="M 245.003906 166.957031 L 317.417969 208.742188 L 317.417969 214.777344 L 245.003906 172.988281 L 245.003906 166.957031 " fill-opacity="1" fill-rule="nonzero"/><path fill="rgb(38.42926%, 78.819275%, 92.549133%)" d="M 228.875 166.414062 L 336.667969 228.644531 L 336.667969 234.675781 L 228.875 172.445312 L 228.875 166.414062 " fill-opacity="1" fill-rule="nonzero"/><path fill="rgb(38.42926%, 78.819275%, 92.549133%)" d="M 228.875 175.109375 L 336.667969 237.339844 L 336.667969 243.371094 L 228.875 181.140625 L 228.875 175.109375 " fill-opacity="1" fill-rule="nonzero"/><path fill="rgb(38.42926%, 78.819275%, 92.549133%)" d="M 228.875 183.804688 L 336.667969 246.035156 L 336.667969 252.066406 L 228.875 189.835938 L 228.875 183.804688 " fill-opacity="1" fill-rule="nonzero"/><path fill="rgb(1.568604%, 2.349854%, 2.349854%)" d="M 336.3125 121.757812 L 336.3125 199.273438 L 228.515625 137.039062 L 228.515625 59.523438 L 336.3125 121.757812 " fill-opacity="1" fill-rule="nonzero"/><path fill="rgb(38.42926%, 78.819275%, 92.549133%)" d="M 336.3125 101.132812 L 336.3125 108.0625 L 228.515625 45.828125 L 228.515625 38.898438 L 336.3125 101.132812 " fill-opacity="1" fill-rule="nonzero"/><path fill="rgb(1.568604%, 2.349854%, 2.349854%)" d="M 307.488281 93.8125 L 336.3125 110.453125 L 336.3125 117.382812 L 228.515625 55.148438 L 228.515625 48.21875 L 307.488281 93.8125 " fill-opacity="1" fill-rule="nonzero"/><path fill="rgb(1.568604%, 2.349854%, 2.349854%)" d="M 238.828125 157.3125 C 237.894531 156.773438 237.050781 156.625 236.378906 156.785156 C 235.707031 155.851562 234.863281 155.023438 233.929688 154.484375 C 231.777344 153.242188 230.03125 153.980469 230.03125 156.132812 C 230.03125 159.179688 236.378906 167 236.378906 167 C 236.378906 167 242.78125 167.601562 242.726562 163.460938 C 242.726562 161.308594 240.980469 158.554688 238.828125 157.3125 " fill-opacity="1" fill-rule="nonzero"/><path fill="rgb(38.42926%, 78.819275%, 92.549133%)" d="M 254.210938 34.234375 L 328.332031 77.078125 L 328.332031 88.339844 L 254.210938 45.496094 L 254.210938 34.234375 " fill-opacity="1" fill-rule="nonzero"/><path fill="rgb(38.42926%, 78.819275%, 92.549133%)" d="M 251.222656 36.4375 C 251.222656 41.625 247.019531 43.398438 241.835938 40.40625 C 236.652344 37.414062 232.449219 30.78125 232.449219 25.601562 C 232.449219 20.414062 236.652344 18.636719 241.835938 21.632812 C 247.019531 24.625 251.222656 31.253906 251.222656 36.4375 " fill-opacity="1" fill-rule="nonzero"/><path fill="rgb(1.568604%, 2.349854%, 2.349854%)" d="M 326.511719 217.097656 C 326.257812 216.953125 326.007812 216.6875 325.859375 216.375 L 323.921875 212.316406 C 323.324219 211.066406 323.113281 209.859375 323.332031 208.917969 C 323.546875 207.984375 324.167969 207.425781 325.078125 207.347656 L 328.265625 207.085938 C 328.625 207.054688 329.105469 207.429688 329.34375 207.925781 C 329.578125 208.421875 329.476562 208.84375 329.121094 208.871094 L 325.929688 209.136719 C 325.367188 209.183594 324.988281 209.527344 324.851562 210.109375 C 324.714844 210.6875 324.84375 211.4375 325.214844 212.210938 L 327.15625 216.269531 C 327.390625 216.761719 327.289062 217.1875 326.9375 217.214844 C 326.804688 217.226562 326.65625 217.183594 326.511719 217.097656 " fill-opacity="1" fill-rule="nonzero"/><path fill="rgb(1.568604%, 2.349854%, 2.349854%)" d="M 329.40625 210.699219 L 331.480469 207.746094 L 326.847656 205.351562 L 329.40625 210.699219 " fill-opacity="1" fill-rule="nonzero"/><path fill="rgb(99.609375%, 96.469116%, 91.758728%)" d="M 45.125 78.207031 L 166.289062 8.257812 L 166.289062 218.507812 L 45.125 288.457031 L 45.125 78.207031 " fill-opacity="1" fill-rule="nonzero"/><path fill="rgb(98.429871%, 79.60968%, 59.609985%)" d="M 68.296875 210.136719 L 140.710938 168.304688 L 140.710938 174.335938 L 68.296875 216.167969 L 68.296875 210.136719 " fill-opacity="1" fill-rule="nonzero"/><path fill="rgb(98.429871%, 79.60968%, 59.609985%)" d="M 68.296875 218.832031 L 140.710938 177 L 140.710938 183.03125 L 68.296875 224.863281 L 68.296875 218.832031 " fill-opacity="1" fill-rule="nonzero"/><path fill="rgb(98.429871%, 79.60968%, 59.609985%)" d="M 52.171875 236.90625 L 159.960938 174.671875 L 159.960938 180.703125 L 52.171875 242.933594 L 52.171875 236.90625 " fill-opacity="1" fill-rule="nonzero"/><path fill="rgb(98.429871%, 79.60968%, 59.609985%)" d="M 52.171875 245.601562 L 159.960938 183.371094 L 159.960938 189.398438 L 52.171875 251.632812 L 52.171875 245.601562 " fill-opacity="1" fill-rule="nonzero"/><path fill="rgb(98.429871%, 79.60968%, 59.609985%)" d="M 52.171875 254.296875 L 159.960938 192.066406 L 159.960938 198.097656 L 52.171875 260.328125 L 52.171875 254.296875 " fill-opacity="1" fill-rule="nonzero"/><path fill="rgb(1.568604%, 2.349854%, 2.349854%)" d="M 159.605469 112.671875 L 159.605469 151.636719 L 51.808594 213.875 L 51.808594 174.910156 L 159.605469 112.671875 " fill-opacity="1" fill-rule="nonzero"/><path fill="rgb(38.42926%, 78.819275%, 92.549133%)" d="M 159.605469 68.195312 L 159.605469 107.164062 L 51.808594 169.398438 L 51.808594 130.433594 L 159.605469 68.195312 " fill-opacity="1" fill-rule="nonzero"/><path fill="rgb(38.42926%, 78.819275%, 92.549133%)" d="M 159.605469 47.570312 L 159.605469 54.5 L 51.808594 116.738281 L 51.808594 109.808594 L 159.605469 47.570312 " fill-opacity="1" fill-rule="nonzero"/><path fill="rgb(1.568604%, 2.349854%, 2.349854%)" d="M 159.605469 56.890625 L 159.605469 63.820312 L 51.808594 126.058594 L 51.808594 119.128906 L 159.605469 56.890625 " fill-opacity="1" fill-rule="nonzero"/><path fill="rgb(98.429871%, 79.60968%, 59.609985%)" d="M 62.121094 216.316406 C 61.1875 216.855469 60.34375 217.679688 59.671875 218.613281 C 59.003906 218.457031 58.160156 218.601562 57.226562 219.140625 C 55.074219 220.382812 53.328125 223.136719 53.328125 225.292969 C 53.328125 228.339844 59.671875 228.832031 59.671875 228.832031 C 59.671875 228.832031 66.074219 222.039062 66.019531 217.964844 C 66.019531 215.808594 64.273438 215.070312 62.121094 216.316406 " fill-opacity="1" fill-rule="nonzero"/><path fill="rgb(38.42926%, 78.819275%, 92.549133%)" d="M 77.503906 75.472656 L 151.621094 32.738281 L 151.621094 44 L 77.503906 86.734375 L 77.503906 75.472656 " fill-opacity="1" fill-rule="nonzero"/><path fill="rgb(38.42926%, 78.819275%, 92.549133%)" d="M 74.515625 81.132812 C 74.515625 86.3125 70.3125 92.945312 65.128906 95.9375 C 59.945312 98.929688 55.742188 97.15625 55.742188 91.96875 C 55.742188 86.785156 59.945312 80.15625 65.128906 77.164062 C 70.3125 74.171875 74.515625 75.945312 74.515625 81.132812 " fill-opacity="1" fill-rule="nonzero"/><path fill="rgb(38.42926%, 78.819275%, 92.549133%)" d="M 149.800781 174.855469 C 149.550781 175 149.304688 175.023438 149.15625 174.882812 L 147.214844 173.0625 C 146.617188 172.5 146.40625 171.539062 146.625 170.347656 C 146.84375 169.160156 147.460938 167.886719 148.371094 166.765625 L 151.558594 162.816406 C 151.917969 162.371094 152.398438 162.191406 152.632812 162.414062 C 152.871094 162.636719 152.773438 163.171875 152.414062 163.613281 L 149.222656 167.5625 C 148.664062 168.257812 148.277344 169.046875 148.144531 169.78125 C 148.007812 170.519531 148.140625 171.113281 148.511719 171.460938 L 150.449219 173.28125 C 150.6875 173.5 150.585938 174.039062 150.230469 174.480469 C 150.097656 174.644531 149.949219 174.769531 149.800781 174.855469 " fill-opacity="1" fill-rule="nonzero"/><path fill="rgb(38.42926%, 78.819275%, 92.549133%)" d="M 152.699219 165.113281 L 154.773438 159.765625 L 150.144531 162.71875 Z M 152.699219 165.113281 " fill-opacity="1" fill-rule="nonzero"/><path fill="rgb(1.568604%, 2.349854%, 2.349854%)" d="M 203.632812 53.558594 L 196.324219 70.625 L 196.324219 249.277344 C 196.324219 252.8125 193.464844 257.335938 189.898438 259.375 L 137.574219 289.597656 L 125.675781 296.464844 L 120.917969 307.617188 L 112.316406 302.617188 C 110.957031 302.210938 110.105469 300.988281 110.105469 299.050781 L 110.105469 101.527344 C 110.105469 97.960938 112.960938 93.4375 116.53125 91.398438 L 189.898438 49.003906 C 191.972656 47.847656 193.808594 47.746094 194.960938 48.5625 L 203.632812 53.558594 " fill-opacity="1" fill-rule="nonzero"/><path fill="rgb(89.019775%, 91.369629%, 90.589905%)" d="M 205.777344 57.09375 L 205.777344 254.613281 C 205.777344 258.152344 202.886719 262.707031 199.347656 264.746094 L 125.949219 307.105469 C 122.414062 309.179688 119.523438 307.957031 119.523438 304.386719 L 119.523438 106.863281 C 119.523438 103.328125 122.414062 98.773438 125.949219 96.734375 L 199.347656 54.375 C 201.015625 53.421875 202.511719 53.183594 203.628906 53.558594 C 204.957031 53.964844 205.777344 55.1875 205.777344 57.09375 " fill-opacity="1" fill-rule="nonzero"/><path fill="rgb(38.42926%, 78.819275%, 92.549133%)" d="M 126.125 106.265625 L 199.199219 64.078125 C 201.128906 62.964844 202.691406 63.625 202.691406 65.554688 L 202.691406 243.183594 C 202.691406 245.113281 201.128906 247.578125 199.199219 248.695312 L 126.125 290.882812 C 124.195312 291.996094 122.628906 291.335938 122.628906 289.40625 L 122.628906 111.777344 C 122.628906 109.847656 124.195312 107.378906 126.125 106.265625 " fill-opacity="1" fill-rule="nonzero"/><path fill="rgb(38.42926%, 78.819275%, 92.549133%)" d="M 172.875 276.601562 C 174.90625 275.425781 176.558594 272.832031 176.558594 270.816406 L 176.558594 269.140625 C 176.558594 268.328125 176.277344 267.71875 175.765625 267.421875 C 175.128906 267.054688 174.179688 267.179688 173.160156 267.769531 L 157.863281 276.601562 C 155.832031 277.773438 154.179688 280.367188 154.179688 282.390625 L 154.179688 284.058594 C 154.179688 284.875 154.460938 285.484375 154.96875 285.78125 C 155.605469 286.148438 156.558594 286.023438 157.578125 285.429688 Z M 154.6875 286.269531 C 153.996094 285.871094 153.617188 285.085938 153.617188 284.058594 L 153.617188 282.390625 C 153.617188 280.191406 155.394531 277.371094 157.578125 276.109375 L 172.875 267.28125 C 174.078125 266.589844 175.234375 266.460938 176.050781 266.933594 C 176.742188 267.332031 177.125 268.117188 177.125 269.140625 L 177.125 270.816406 C 177.125 273.011719 175.34375 275.828125 173.160156 277.09375 L 157.863281 285.921875 C 157.140625 286.335938 156.433594 286.550781 155.808594 286.550781 C 155.390625 286.550781 155.011719 286.457031 154.6875 286.269531 " fill-opacity="1" fill-rule="nonzero"/><path fill="rgb(1.568604%, 2.349854%, 2.349854%)" d="M 165.492188 80.609375 L 159.527344 84.054688 C 158.703125 84.53125 158.035156 84.25 158.035156 83.425781 L 158.035156 82.769531 C 158.035156 81.949219 158.703125 80.894531 159.527344 80.417969 L 165.492188 76.976562 C 166.316406 76.5 166.984375 76.785156 166.984375 77.605469 L 166.984375 78.257812 C 166.984375 79.082031 166.316406 80.136719 165.492188 80.609375 " fill-opacity="1" fill-rule="nonzero"/><path fill="rgb(1.568604%, 2.349854%, 2.349854%)" d="M 197.78125 59.875 C 197.78125 61.195312 196.714844 62.878906 195.394531 63.640625 C 194.078125 64.402344 193.007812 63.949219 193.007812 62.632812 C 193.007812 61.3125 194.078125 59.628906 195.394531 58.867188 C 196.714844 58.105469 197.78125 58.558594 197.78125 59.875 " fill-opacity="1" fill-rule="nonzero"/><path fill="rgb(89.019775%, 91.369629%, 90.589905%)" d="M 112.851562 108.4375 L 113.238281 108.210938 C 113.453125 108.121094 113.746094 108.160156 114.074219 108.347656 L 114.839844 108.792969 L 115.609375 109.234375 C 115.933594 109.421875 116.230469 109.726562 116.445312 110.0625 C 116.65625 110.402344 116.789062 110.769531 116.789062 111.097656 L 116.789062 128.660156 C 116.789062 128.988281 116.65625 129.203125 116.445312 129.296875 L 116.058594 129.523438 L 116.003906 129.316406 C 115.878906 129.289062 115.75 129.242188 115.609375 129.160156 L 114.839844 128.714844 L 114.074219 128.273438 C 113.746094 128.085938 113.453125 127.78125 113.238281 127.445312 C 113.023438 127.105469 112.890625 126.734375 112.890625 126.410156 L 112.890625 108.847656 C 112.910156 108.660156 112.851562 108.4375 112.851562 108.4375 " fill-opacity="1" fill-rule="nonzero"/><path fill="rgb(38.42926%, 78.819275%, 92.549133%)" d="M 113.691406 128.496094 L 115.226562 129.382812 C 115.550781 129.570312 115.847656 129.609375 116.0625 129.519531 C 116.273438 129.429688 116.40625 129.210938 116.40625 128.882812 L 116.40625 111.324219 C 116.40625 110.996094 116.273438 110.625 116.0625 110.285156 C 115.847656 109.949219 115.550781 109.648438 115.226562 109.460938 L 114.457031 109.015625 L 113.691406 108.570312 C 113.363281 108.382812 113.070312 108.34375 112.855469 108.4375 C 112.640625 108.527344 112.507812 108.746094 112.507812 109.074219 L 112.507812 126.632812 C 112.507812 126.960938 112.640625 127.332031 112.855469 127.667969 C 113.070312 128.007812 113.363281 128.308594 113.691406 128.496094 " fill-opacity="1" fill-rule="nonzero"/><path fill="rgb(89.019775%, 91.369629%, 90.589905%)" d="M 112.855469 131.925781 L 113.238281 131.699219 C 113.453125 131.609375 113.746094 131.648438 114.074219 131.835938 L 114.839844 132.277344 L 115.609375 132.722656 C 115.933594 132.910156 116.230469 133.214844 116.445312 133.550781 C 116.660156 133.886719 116.792969 134.261719 116.792969 134.585938 L 116.792969 152.148438 C 116.792969 152.472656 116.660156 152.691406 116.445312 152.785156 L 116.0625 153.007812 L 116.007812 152.800781 C 115.882812 152.777344 115.75 152.726562 115.609375 152.648438 L 114.839844 152.203125 L 114.074219 151.761719 C 113.746094 151.574219 113.453125 151.269531 113.238281 150.933594 C 113.023438 150.59375 112.890625 150.222656 112.890625 149.894531 L 112.890625 132.335938 C 112.910156 132.148438 112.855469 131.925781 112.855469 131.925781 " fill-opacity="1" fill-rule="nonzero"/><path fill="rgb(38.42926%, 78.819275%, 92.549133%)" d="M 113.691406 151.988281 L 115.222656 152.871094 C 115.550781 153.0625 115.847656 153.101562 116.0625 153.007812 C 116.273438 152.917969 116.40625 152.699219 116.40625 152.371094 L 116.40625 134.8125 C 116.40625 134.484375 116.273438 134.113281 116.0625 133.777344 C 115.847656 133.4375 115.550781 133.136719 115.222656 132.949219 L 114.457031 132.503906 L 113.691406 132.0625 C 113.363281 131.875 113.066406 131.835938 112.855469 131.925781 C 112.640625 132.015625 112.507812 132.234375 112.507812 132.5625 L 112.507812 150.121094 C 112.507812 150.449219 112.640625 150.820312 112.855469 151.160156 C 113.066406 151.496094 113.363281 151.796875 113.691406 151.988281 " fill-opacity="1" fill-rule="nonzero"/><path fill="rgb(38.42926%, 78.819275%, 92.549133%)" d="M 203.632812 53.558594 C 202.511719 53.183594 201.015625 53.421875 199.347656 54.375 L 125.949219 96.734375 C 122.414062 98.773438 119.523438 103.332031 119.523438 106.867188 L 110.105469 101.527344 C 110.105469 97.960938 112.960938 93.4375 116.53125 91.398438 L 189.898438 49.003906 C 191.972656 47.847656 193.808594 47.746094 194.960938 48.5625 L 203.632812 53.558594 " fill-opacity="1" fill-rule="nonzero"/><path fill="rgb(97.648621%, 69.799805%, 73.728943%)" d="M 148.878906 159.386719 C 148.878906 159.386719 146.691406 157.425781 146.253906 159.867188 C 145.816406 162.3125 147.660156 172.414062 149.914062 169.25 C 152.164062 166.089844 148.878906 159.386719 148.878906 159.386719 " fill-opacity="1" fill-rule="nonzero"/><path fill="rgb(97.648621%, 69.799805%, 73.728943%)" d="M 174.945312 144.339844 C 174.945312 144.339844 177.136719 139.851562 177.574219 141.789062 C 178.011719 143.722656 176.167969 155.957031 173.917969 155.390625 C 171.664062 154.828125 174.945312 144.339844 174.945312 144.339844 " fill-opacity="1" fill-rule="nonzero"/><path fill="rgb(1.568604%, 2.349854%, 2.349854%)" d="M 170.132812 170.671875 L 153.519531 180.261719 C 153.519531 180.261719 144.59375 187.753906 136.550781 195.773438 C 131.667969 200.636719 128.484375 207.246094 128.484375 212.539062 L 128.484375 236.226562 L 195.167969 197.910156 L 195.167969 174.042969 C 195.167969 168.746094 191.984375 165.816406 187.101562 166.585938 C 179.058594 167.855469 170.132812 170.671875 170.132812 170.671875 " fill-opacity="1" fill-rule="nonzero"/><path fill="rgb(97.24884%, 64.309692%, 69.40918%)" d="M 170.140625 170.664062 C 170.140625 170.664062 167.828125 182.121094 161.828125 185.589844 C 155.824219 189.054688 153.511719 180.265625 153.511719 180.265625 L 155.125 164.132812 L 168.527344 156.398438 L 170.140625 170.664062 " fill-opacity="1" fill-rule="nonzero"/><path fill="rgb(97.648621%, 69.799805%, 73.728943%)" d="M 175.605469 144.269531 C 175.605469 151.878906 168.527344 168.304688 161.828125 172.171875 C 155.125 176.042969 148.042969 167.792969 148.042969 160.183594 C 148.042969 147.804688 154.214844 140.429688 161.828125 136.03125 C 169.4375 131.640625 175.605469 131.890625 175.605469 144.269531 " fill-opacity="1" fill-rule="nonzero"/><path fill="rgb(1.568604%, 2.349854%, 2.349854%)" d="M 176.339844 143.09375 C 176.390625 142.835938 176.460938 142.402344 176.523438 141.835938 C 177.105469 137.03125 177.625 122.429688 161.828125 131.550781 C 146.53125 140.378906 146.535156 153.832031 147.082031 158.386719 C 147.175781 159.464844 147.367188 160.058594 147.367188 160.058594 L 148.054688 159.320312 C 148.054688 159.320312 149.285156 160.378906 149.886719 160.449219 C 150.492188 160.523438 150.644531 155.5625 151.398438 151.933594 C 152.15625 148.304688 154.367188 148.035156 154.367188 148.035156 C 154.367188 148.035156 157.152344 147.894531 161.820312 145.109375 C 166.5 142.5 169.285156 139.425781 169.285156 139.425781 C 169.285156 139.425781 171.496094 137.140625 172.25 139.894531 C 173.007812 142.648438 173.160156 147.433594 173.761719 146.667969 C 174.367188 145.898438 175.605469 144.269531 175.605469 144.269531 L 176.285156 143.363281 C 176.289062 143.359375 176.308594 143.261719 176.339844 143.09375 " fill-opacity="1" fill-rule="nonzero"/><path fill="rgb(89.019775%, 91.369629%, 90.589905%)" d="M 152.558594 105.1875 L 196.558594 79.679688 L 196.558594 92.058594 L 152.558594 117.566406 L 152.558594 105.1875 " fill-opacity="1" fill-rule="nonzero"/><path fill="rgb(89.019775%, 91.369629%, 90.589905%)" d="M 149.273438 111.40625 C 149.273438 117.101562 144.652344 124.390625 138.953125 127.679688 C 133.257812 130.96875 128.636719 129.015625 128.636719 123.320312 C 128.636719 117.621094 133.257812 110.332031 138.953125 107.042969 C 144.652344 103.753906 149.273438 105.707031 149.273438 111.40625 " fill-opacity="1" fill-rule="nonzero"/><path fill="rgb(30.198669%, 69.018555%, 90.589905%)" d="M 242.445312 76.285156 L 187.316406 108.257812 C 186.816406 108.546875 186.410156 109.183594 186.410156 109.679688 L 186.410156 133.941406 C 186.410156 134.421875 186.3125 134.953125 186.121094 135.503906 L 178.121094 158.632812 C 177.746094 159.714844 178.78125 159.90625 179.515625 158.890625 L 196.054688 135.984375 C 196.679688 135.117188 197.457031 134.394531 198.265625 133.925781 L 242.445312 108.277344 C 242.941406 107.988281 243.34375 107.351562 243.34375 106.855469 L 243.34375 76.667969 C 243.34375 76.167969 242.941406 75.996094 242.445312 76.285156 " fill-opacity="1" fill-rule="nonzero"/><path fill="rgb(89.019775%, 91.369629%, 90.589905%)" d="M 187.730469 136.058594 C 187.984375 135.324219 188.113281 134.609375 188.113281 133.941406 L 188.113281 109.679688 L 241.644531 78.710938 L 241.644531 106.855469 L 197.410156 132.457031 C 196.398438 133.046875 195.453125 133.921875 194.675781 134.988281 L 182.050781 152.46875 L 187.730469 136.058594 " fill-opacity="1" fill-rule="nonzero"/><path fill="rgb(89.019775%, 91.369629%, 90.589905%)" d="M 193.304688 228.449219 C 193.304688 229.167969 192.726562 230.082031 192.011719 230.496094 C 191.292969 230.90625 190.714844 230.664062 190.714844 229.945312 C 190.714844 229.230469 191.292969 228.316406 192.011719 227.902344 C 192.726562 227.492188 193.304688 227.734375 193.304688 228.449219 " fill-opacity="1" fill-rule="nonzero"/><path fill="rgb(89.019775%, 91.369629%, 90.589905%)" d="M 196.460938 226.582031 C 196.460938 227.300781 195.882812 228.214844 195.167969 228.628906 C 194.453125 229.042969 193.871094 228.796875 193.871094 228.082031 C 193.871094 227.363281 194.453125 226.449219 195.167969 226.035156 C 195.882812 225.625 196.460938 225.867188 196.460938 226.582031 " fill-opacity="1" fill-rule="nonzero"/><path fill="rgb(89.019775%, 91.369629%, 90.589905%)" d="M 199.617188 224.71875 C 199.617188 225.433594 199.039062 226.347656 198.324219 226.761719 C 197.609375 227.175781 197.027344 226.929688 197.027344 226.214844 C 197.027344 225.5 197.609375 224.582031 198.324219 224.171875 C 199.039062 223.757812 199.617188 224.003906 199.617188 224.71875 " fill-opacity="1" fill-rule="nonzero"/><path fill="rgb(89.019775%, 91.369629%, 90.589905%)" d="M 180.25 234.042969 C 179.617188 234.042969 178.902344 234.261719 178.152344 234.699219 C 175.664062 236.136719 173.640625 239.3125 173.640625 241.78125 C 173.640625 244.398438 178.574219 245.421875 180.734375 245.628906 C 181.765625 244.5 188.226562 237.265625 188.167969 232.910156 C 188.167969 231.925781 187.832031 231.195312 187.226562 230.84375 C 186.464844 230.410156 185.316406 230.558594 184.078125 231.277344 C 183.058594 231.867188 182.078125 232.789062 181.246094 233.941406 L 181.082031 234.171875 L 180.800781 234.109375 C 180.625 234.0625 180.441406 234.042969 180.25 234.042969 Z M 181.070312 246.507812 L 180.871094 246.492188 C 180.542969 246.464844 172.789062 245.824219 172.789062 241.78125 C 172.789062 239.042969 175.007812 235.535156 177.730469 233.960938 C 178.789062 233.351562 179.808594 233.109375 180.71875 233.222656 C 181.582031 232.078125 182.59375 231.152344 183.652344 230.539062 C 185.160156 229.671875 186.617188 229.511719 187.652344 230.109375 C 188.53125 230.617188 189.015625 231.609375 189.015625 232.90625 C 189.082031 237.953125 181.535156 246.019531 181.210938 246.359375 L 181.070312 246.507812 " fill-opacity="1" fill-rule="nonzero"/><path fill="rgb(89.019775%, 91.369629%, 90.589905%)" d="M 328.964844 171.867188 L 328.964844 369.417969 C 328.964844 371.339844 328.125 372.570312 326.746094 372.964844 L 318.128906 377.988281 L 313.398438 366.804688 L 301.476562 359.960938 L 249.175781 329.71875 C 245.578125 327.703125 242.722656 323.171875 242.722656 319.625 L 242.722656 140.988281 L 235.433594 123.898438 L 244.101562 118.921875 C 245.234375 118.085938 247.105469 118.183594 249.175781 119.367188 L 322.507812 161.769531 C 326.105469 163.792969 328.964844 168.324219 328.964844 171.867188 " fill-opacity="1" fill-rule="nonzero"/><path fill="rgb(1.568604%, 2.349854%, 2.349854%)" d="M 319.554688 177.238281 L 319.554688 374.738281 C 319.554688 378.332031 316.648438 379.515625 313.101562 377.445312 L 239.714844 335.089844 C 236.171875 333.070312 233.265625 328.488281 233.265625 324.992188 L 233.265625 127.445312 C 233.265625 125.523438 234.105469 124.339844 235.433594 123.898438 C 236.566406 123.550781 238.042969 123.800781 239.714844 124.734375 L 313.101562 167.089844 C 316.648438 169.109375 319.554688 173.691406 319.554688 177.238281 " fill-opacity="1" fill-rule="nonzero"/><path fill="rgb(38.42926%, 78.819275%, 92.549133%)" d="M 312.953125 176.617188 L 239.878906 134.429688 C 237.953125 133.316406 236.386719 133.976562 236.386719 135.90625 L 236.386719 313.535156 C 236.386719 315.464844 237.953125 317.929688 239.878906 319.046875 L 312.953125 361.234375 C 314.886719 362.347656 316.449219 361.6875 316.449219 359.757812 L 316.449219 182.128906 C 316.449219 180.199219 314.886719 177.730469 312.953125 176.617188 " fill-opacity="1" fill-rule="nonzero"/><path fill="rgb(38.42926%, 78.819275%, 92.549133%)" d="M 266.199219 346.953125 L 281.496094 355.78125 C 282.519531 356.375 283.472656 356.5 284.105469 356.132812 C 284.617188 355.835938 284.894531 355.226562 284.894531 354.414062 L 284.894531 352.738281 C 284.894531 350.722656 283.246094 348.125 281.214844 346.953125 L 265.921875 338.121094 C 264.902344 337.53125 263.945312 337.40625 263.3125 337.773438 C 262.800781 338.070312 262.519531 338.679688 262.519531 339.492188 L 262.519531 341.167969 C 262.519531 343.183594 264.175781 345.78125 266.199219 346.953125 Z M 283.269531 356.902344 C 282.644531 356.902344 281.9375 356.691406 281.214844 356.273438 L 265.921875 347.445312 C 263.734375 346.179688 261.953125 343.363281 261.953125 341.167969 L 261.953125 339.492188 C 261.953125 338.46875 262.335938 337.683594 263.027344 337.285156 C 263.847656 336.8125 265.003906 336.941406 266.199219 337.632812 L 281.496094 346.460938 C 283.683594 347.722656 285.464844 350.542969 285.464844 352.738281 L 285.464844 354.414062 C 285.464844 355.4375 285.082031 356.222656 284.390625 356.621094 C 284.066406 356.808594 283.683594 356.902344 283.269531 356.902344 " fill-opacity="1" fill-rule="nonzero"/><path fill="rgb(38.42926%, 78.819275%, 92.549133%)" d="M 273.585938 150.964844 L 279.550781 154.40625 C 280.371094 154.882812 281.039062 154.597656 281.039062 153.777344 L 281.039062 153.125 C 281.039062 152.300781 280.371094 151.246094 279.550781 150.773438 L 273.585938 147.328125 C 272.761719 146.851562 272.09375 147.132812 272.09375 147.960938 L 272.09375 148.609375 C 272.09375 149.433594 272.761719 150.488281 273.585938 150.964844 " fill-opacity="1" fill-rule="nonzero"/><path fill="rgb(38.42926%, 78.819275%, 92.549133%)" d="M 241.296875 130.226562 C 241.296875 131.546875 242.367188 133.230469 243.683594 133.992188 C 245 134.753906 246.070312 134.300781 246.070312 132.984375 C 246.070312 131.667969 245 129.980469 243.683594 129.21875 C 242.367188 128.457031 241.296875 128.910156 241.296875 130.226562 " fill-opacity="1" fill-rule="nonzero"/><path fill="rgb(1.568604%, 2.349854%, 2.349854%)" d="M 326.226562 178.789062 L 325.839844 178.5625 C 325.625 178.472656 325.332031 178.507812 325.003906 178.699219 L 324.238281 179.140625 L 323.46875 179.582031 C 323.144531 179.773438 322.847656 180.074219 322.632812 180.410156 C 322.421875 180.75 322.289062 181.121094 322.289062 181.449219 L 322.289062 199.007812 C 322.289062 199.335938 322.421875 199.554688 322.632812 199.644531 L 323.015625 199.871094 L 323.074219 199.667969 C 323.195312 199.636719 323.332031 199.589844 323.46875 199.511719 L 324.238281 199.066406 L 325.003906 198.625 C 325.332031 198.433594 325.625 198.128906 325.839844 197.796875 C 326.054688 197.457031 326.183594 197.085938 326.183594 196.757812 L 326.183594 179.199219 C 326.167969 179.007812 326.226562 178.789062 326.226562 178.789062 " fill-opacity="1" fill-rule="nonzero"/><path fill="rgb(89.019775%, 91.369629%, 90.589905%)" d="M 325.386719 198.847656 L 324.621094 199.292969 L 323.855469 199.734375 C 323.53125 199.921875 323.230469 199.960938 323.015625 199.871094 C 322.800781 199.78125 322.671875 199.5625 322.671875 199.234375 L 322.671875 181.675781 C 322.671875 181.347656 322.800781 180.976562 323.015625 180.640625 C 323.230469 180.300781 323.53125 179.996094 323.855469 179.8125 L 324.621094 179.367188 L 325.386719 178.925781 C 325.714844 178.738281 326.011719 178.699219 326.226562 178.789062 C 326.4375 178.878906 326.570312 179.097656 326.570312 179.421875 L 326.570312 196.984375 C 326.570312 197.308594 326.4375 197.683594 326.226562 198.023438 C 326.011719 198.359375 325.714844 198.660156 325.386719 198.847656 " fill-opacity="1" fill-rule="nonzero"/><path fill="rgb(1.568604%, 2.349854%, 2.349854%)" d="M 326.226562 202.277344 L 325.839844 202.050781 C 325.625 201.960938 325.332031 201.996094 325.003906 202.1875 L 324.238281 202.628906 L 323.46875 203.074219 C 323.144531 203.261719 322.847656 203.566406 322.632812 203.902344 C 322.421875 204.242188 322.289062 204.613281 322.289062 204.9375 L 322.289062 222.5 C 322.289062 222.824219 322.421875 223.042969 322.632812 223.136719 L 323.015625 223.363281 L 323.074219 223.152344 C 323.195312 223.125 323.332031 223.078125 323.46875 223 L 325.003906 222.113281 C 325.332031 221.925781 325.625 221.621094 325.839844 221.28125 C 326.054688 220.945312 326.183594 220.574219 326.183594 220.25 L 326.183594 202.6875 C 326.167969 202.5 326.226562 202.277344 326.226562 202.277344 " fill-opacity="1" fill-rule="nonzero"/><path fill="rgb(89.019775%, 91.369629%, 90.589905%)" d="M 325.386719 222.339844 L 323.855469 223.222656 C 323.53125 223.414062 323.230469 223.453125 323.015625 223.363281 C 322.800781 223.269531 322.671875 223.050781 322.671875 222.722656 L 322.671875 205.164062 C 322.671875 204.835938 322.800781 204.464844 323.015625 204.128906 C 323.230469 203.792969 323.53125 203.488281 323.855469 203.300781 L 324.621094 202.859375 L 325.386719 202.414062 C 325.714844 202.226562 326.011719 202.1875 326.226562 202.277344 C 326.4375 202.367188 326.570312 202.585938 326.570312 202.914062 L 326.570312 220.472656 C 326.570312 220.800781 326.4375 221.171875 326.226562 221.511719 C 326.011719 221.847656 325.714844 222.148438 325.386719 222.339844 " fill-opacity="1" fill-rule="nonzero"/><path fill="rgb(1.568604%, 2.349854%, 2.349854%)" d="M 290.578125 276.566406 C 290.578125 276.566406 271.515625 263.941406 259.128906 258.410156 C 259.128906 258.410156 261.277344 223.097656 261.9375 223.261719 C 262.59375 223.417969 288.324219 239.484375 288.324219 239.484375 L 290.578125 276.566406 " fill-opacity="1" fill-rule="nonzero"/><path fill="rgb(97.648621%, 69.799805%, 73.728943%)" d="M 287.886719 248.132812 C 287.886719 248.132812 290.074219 246.171875 290.511719 248.613281 C 290.953125 251.054688 289.109375 261.15625 286.855469 257.996094 C 284.605469 254.832031 287.886719 248.132812 287.886719 248.132812 " fill-opacity="1" fill-rule="nonzero"/><path fill="rgb(97.648621%, 69.799805%, 73.728943%)" d="M 261.820312 233.082031 C 261.820312 233.082031 259.632812 228.59375 259.195312 230.53125 C 258.757812 232.464844 260.601562 244.699219 262.851562 244.136719 C 265.105469 243.574219 261.820312 233.082031 261.820312 233.082031 " fill-opacity="1" fill-rule="nonzero"/><path fill="rgb(1.568604%, 2.349854%, 2.349854%)" d="M 266.636719 259.828125 L 283.25 269.421875 C 283.25 269.421875 287.28125 273.929688 292.367188 279.320312 C 302.109375 289.644531 308.285156 303.09375 308.285156 313.910156 L 274.941406 294.660156 L 241.601562 275.414062 C 241.601562 264.597656 247.777344 258.273438 257.515625 259.199219 C 262.605469 259.679688 266.636719 259.828125 266.636719 259.828125 " fill-opacity="1" fill-rule="nonzero"/><path fill="rgb(97.24884%, 64.309692%, 69.40918%)" d="M 266.628906 259.828125 C 266.628906 259.828125 268.941406 271.285156 274.941406 274.75 C 280.945312 278.214844 283.253906 269.425781 283.253906 269.425781 L 281.644531 253.296875 L 268.242188 245.558594 L 266.628906 259.828125 " fill-opacity="1" fill-rule="nonzero"/><path fill="rgb(97.648621%, 69.799805%, 73.728943%)" d="M 261.160156 233.429688 C 261.160156 241.042969 268.242188 257.464844 274.945312 261.335938 C 281.644531 265.203125 288.726562 256.957031 288.726562 249.34375 C 288.726562 236.964844 282.554688 229.589844 274.945312 225.195312 C 267.332031 220.800781 261.160156 221.050781 261.160156 233.429688 " fill-opacity="1" fill-rule="nonzero"/><path fill="rgb(1.568604%, 2.349854%, 2.349854%)" d="M 259.007812 229.910156 C 259.007812 229.910156 258.617188 210.722656 275 220.183594 C 291.382812 229.640625 291.222656 248.175781 291.222656 248.175781 C 291.222656 248.175781 293.378906 275.984375 292.398438 277.613281 C 291.410156 279.246094 288.824219 281.949219 285.824219 281.59375 C 285.824219 281.59375 287.964844 260.714844 286.371094 245.890625 C 286.242188 244.804688 286.097656 243.617188 285.910156 242.457031 C 285.828125 241.921875 285.738281 241.445312 285.644531 240.992188 C 284.875 237.285156 282.617188 237.011719 282.617188 237.011719 C 282.617188 237.011719 279.773438 236.867188 275.007812 234.027344 C 270.230469 231.359375 267.390625 228.21875 267.390625 228.21875 C 267.390625 228.21875 265.132812 225.890625 264.359375 228.703125 C 263.996094 230.03125 263.769531 231.8125 263.566406 233.253906 C 262.085938 246.328125 264.175781 269.097656 264.175781 269.097656 C 261.179688 265.984375 258.585938 260.292969 257.601562 257.527344 C 256.621094 254.761719 259.007812 229.910156 259.007812 229.910156 " fill-opacity="1" fill-rule="nonzero"/><path fill="rgb(1.568604%, 2.349854%, 2.349854%)" d="M 284.070312 234.773438 C 284.070312 234.773438 285.414062 238.78125 285.894531 243.597656 C 285.894531 243.597656 275.144531 240.382812 264.105469 231.019531 C 264.105469 231.019531 264.121094 224.546875 266.082031 223.933594 C 268.042969 223.320312 280.132812 229.097656 284.070312 234.773438 " fill-opacity="1" fill-rule="nonzero"/><path fill="rgb(89.019775%, 91.369629%, 90.589905%)" d="M 266.371094 164.148438 L 310.375 189.449219 L 310.375 201.828125 L 266.371094 176.527344 L 266.371094 164.148438 " fill-opacity="1" fill-rule="nonzero"/><path fill="rgb(89.019775%, 91.369629%, 90.589905%)" d="M 263.089844 169.371094 C 263.089844 175.074219 258.46875 177.023438 252.769531 173.734375 C 247.074219 170.445312 242.453125 163.160156 242.453125 157.460938 C 242.453125 151.761719 247.074219 149.808594 252.769531 153.097656 C 258.46875 156.390625 263.089844 163.675781 263.089844 169.371094 " fill-opacity="1" fill-rule="nonzero"/><path fill="rgb(30.198669%, 69.018555%, 90.589905%)" d="M 190.460938 169.710938 L 245.59375 201.683594 C 246.089844 201.972656 246.496094 202.609375 246.496094 203.109375 L 246.496094 227.367188 C 246.496094 227.847656 246.59375 228.378906 246.785156 228.933594 L 254.789062 252.058594 C 255.160156 253.140625 254.125 253.328125 253.390625 252.316406 L 236.851562 229.410156 C 236.226562 228.542969 235.445312 227.820312 234.640625 227.351562 L 190.460938 201.703125 C 189.964844 201.414062 189.558594 200.777344 189.558594 200.277344 L 189.558594 170.09375 C 189.558594 169.59375 189.964844 169.421875 190.460938 169.710938 " fill-opacity="1" fill-rule="nonzero"/><path fill="rgb(89.019775%, 91.369629%, 90.589905%)" d="M 245.175781 229.484375 C 244.925781 228.746094 244.792969 228.03125 244.792969 227.363281 L 244.792969 203.105469 L 191.261719 172.136719 L 191.261719 200.28125 L 235.496094 225.882812 C 236.507812 226.46875 237.453125 227.347656 238.230469 228.414062 L 250.855469 245.894531 L 245.175781 229.484375 " fill-opacity="1" fill-rule="nonzero"/><path fill="rgb(89.019775%, 91.369629%, 90.589905%)" d="M 305.257812 339.070312 L 295.882812 333.65625 C 292.960938 331.96875 290.578125 332.976562 290.578125 335.898438 C 290.578125 338.824219 292.960938 342.578125 295.882812 344.265625 L 305.257812 349.675781 C 308.183594 351.367188 310.5625 350.359375 310.5625 347.4375 C 310.5625 344.511719 308.183594 340.757812 305.257812 339.070312 Z M 305.257812 339.488281 C 307.949219 341.042969 310.136719 344.5 310.136719 347.191406 C 310.136719 349.882812 307.949219 350.808594 305.257812 349.253906 L 295.882812 343.84375 C 293.191406 342.289062 291.003906 338.835938 291.003906 336.144531 C 291.003906 333.453125 293.191406 332.527344 295.882812 334.078125 L 305.257812 339.488281 " fill-opacity="1" fill-rule="nonzero"/><path fill="rgb(89.019775%, 91.369629%, 90.589905%)" d="M 295.882812 343 C 293.65625 341.714844 291.847656 338.855469 291.847656 336.632812 C 291.847656 334.40625 293.65625 333.640625 295.882812 334.925781 L 305.253906 340.335938 C 307.480469 341.621094 309.292969 344.476562 309.292969 346.703125 C 309.292969 348.929688 307.480469 349.695312 305.253906 348.410156 L 295.882812 343 " fill-opacity="1" fill-rule="nonzero"/><path fill="rgb(38.42926%, 78.819275%, 92.549133%)" d="M 308.449219 346.214844 C 308.449219 348.078125 306.9375 348.71875 305.074219 347.640625 C 303.210938 346.566406 301.699219 344.183594 301.699219 342.316406 C 301.699219 340.453125 303.210938 339.816406 305.074219 340.890625 C 306.9375 341.96875 308.449219 344.351562 308.449219 346.214844 " fill-opacity="1" fill-rule="nonzero"/><g clip-path="url(#clip-1)"><path fill="rgb(1.568604%, 2.349854%, 2.349854%)" d="M 130.875 145.625 L 123.566406 162.691406 L 123.566406 341.347656 C 123.566406 344.882812 120.710938 349.402344 117.140625 351.445312 L 64.820312 381.667969 L 52.921875 388.535156 L 48.160156 399.683594 L 39.558594 394.6875 C 38.199219 394.28125 37.351562 393.054688 37.351562 391.117188 L 37.351562 193.59375 C 37.351562 190.027344 40.207031 185.503906 43.777344 183.464844 L 117.140625 141.074219 C 119.214844 139.914062 121.050781 139.8125 122.207031 140.628906 L 130.875 145.625 " fill-opacity="1" fill-rule="nonzero"/></g><path fill="rgb(89.019775%, 91.369629%, 90.589905%)" d="M 133.019531 149.164062 L 133.019531 346.683594 C 133.019531 350.21875 130.128906 354.773438 126.59375 356.816406 L 53.191406 399.175781 C 49.65625 401.25 46.765625 400.023438 46.765625 396.457031 L 46.765625 198.933594 C 46.765625 195.398438 49.65625 190.84375 53.191406 188.804688 L 126.59375 146.441406 C 128.257812 145.492188 129.753906 145.25 130.875 145.625 C 131.964844 145.96875 132.746094 146.882812 132.949219 148.277344 C 132.984375 148.550781 133.019531 148.855469 133.019531 149.164062 " fill-opacity="1" fill-rule="nonzero"/><path fill="rgb(38.42926%, 78.819275%, 92.549133%)" d="M 53.359375 198.324219 L 126.433594 156.136719 C 128.359375 155.023438 129.925781 155.683594 129.925781 157.609375 L 129.925781 335.242188 C 129.925781 337.171875 128.359375 339.636719 126.433594 340.75 L 53.359375 382.941406 C 51.429688 384.054688 49.867188 383.394531 49.867188 381.464844 L 49.867188 203.832031 C 49.867188 201.902344 51.429688 199.4375 53.359375 198.324219 " fill-opacity="1" fill-rule="nonzero"/><path fill="rgb(38.42926%, 78.819275%, 92.549133%)" d="M 100.109375 368.660156 C 102.140625 367.488281 103.792969 364.890625 103.792969 362.871094 L 103.792969 361.199219 C 103.792969 360.382812 103.511719 359.773438 103.003906 359.480469 C 102.363281 359.113281 101.414062 359.238281 100.394531 359.828125 L 85.097656 368.660156 C 83.066406 369.828125 81.414062 372.425781 81.414062 374.445312 L 81.414062 376.117188 C 81.414062 376.933594 81.695312 377.542969 82.203125 377.835938 C 82.839844 378.207031 83.792969 378.082031 84.816406 377.488281 Z M 81.921875 378.328125 C 81.230469 377.925781 80.847656 377.140625 80.847656 376.117188 L 80.847656 374.445312 C 80.847656 372.246094 82.628906 369.429688 84.816406 368.167969 L 100.109375 359.339844 C 101.308594 358.644531 102.464844 358.515625 103.285156 358.992188 C 103.976562 359.390625 104.359375 360.175781 104.359375 361.199219 L 104.359375 362.871094 C 104.359375 365.070312 102.578125 367.886719 100.394531 369.148438 L 85.097656 377.980469 C 84.375 378.394531 83.667969 378.609375 83.042969 378.609375 C 82.628906 378.609375 82.246094 378.515625 81.921875 378.328125 " fill-opacity="1" fill-rule="nonzero"/><path fill="rgb(1.568604%, 2.349854%, 2.349854%)" d="M 92.726562 172.667969 L 86.761719 176.109375 C 85.9375 176.585938 85.269531 176.304688 85.269531 175.480469 L 85.269531 174.828125 C 85.269531 174.003906 85.9375 172.953125 86.761719 172.476562 L 92.726562 169.035156 C 93.550781 168.554688 94.21875 168.839844 94.21875 169.664062 L 94.21875 170.3125 C 94.21875 171.136719 93.550781 172.191406 92.726562 172.667969 " fill-opacity="1" fill-rule="nonzero"/><path fill="rgb(1.568604%, 2.349854%, 2.349854%)" d="M 125.015625 151.933594 C 125.015625 153.25 123.945312 154.9375 122.628906 155.699219 C 121.308594 156.460938 120.242188 156.007812 120.242188 154.6875 C 120.242188 153.371094 121.308594 151.6875 122.628906 150.925781 C 123.945312 150.164062 125.015625 150.617188 125.015625 151.933594 " fill-opacity="1" fill-rule="nonzero"/><path fill="rgb(89.019775%, 91.369629%, 90.589905%)" d="M 40.085938 200.496094 L 40.472656 200.269531 C 40.6875 200.179688 40.980469 200.214844 41.308594 200.40625 L 42.074219 200.847656 L 42.84375 201.289062 C 43.167969 201.476562 43.464844 201.78125 43.679688 202.121094 C 43.894531 202.457031 44.023438 202.828125 44.023438 203.15625 L 44.023438 220.714844 C 44.023438 221.042969 43.894531 221.261719 43.679688 221.351562 L 43.292969 221.578125 L 43.238281 221.371094 C 43.117188 221.34375 42.984375 221.296875 42.84375 221.214844 L 42.074219 220.773438 L 41.308594 220.328125 C 40.980469 220.140625 40.6875 219.839844 40.472656 219.5 C 40.257812 219.164062 40.125 218.792969 40.125 218.464844 L 40.125 200.902344 C 40.148438 200.71875 40.085938 200.496094 40.085938 200.496094 " fill-opacity="1" fill-rule="nonzero"/><path fill="rgb(38.42926%, 78.819275%, 92.549133%)" d="M 40.921875 220.558594 L 41.691406 221 L 42.457031 221.441406 C 42.785156 221.632812 43.082031 221.667969 43.292969 221.578125 C 43.507812 221.488281 43.640625 221.269531 43.640625 220.941406 L 43.640625 203.378906 C 43.640625 203.054688 43.507812 202.683594 43.292969 202.34375 C 43.082031 202.007812 42.785156 201.707031 42.457031 201.515625 L 41.691406 201.074219 L 40.921875 200.628906 C 40.597656 200.441406 40.300781 200.402344 40.085938 200.496094 C 39.875 200.585938 39.742188 200.804688 39.742188 201.128906 L 39.742188 218.691406 C 39.742188 219.019531 39.875 219.386719 40.085938 219.726562 C 40.300781 220.0625 40.597656 220.367188 40.921875 220.558594 " fill-opacity="1" fill-rule="nonzero"/><path fill="rgb(89.019775%, 91.369629%, 90.589905%)" d="M 40.085938 223.984375 L 40.472656 223.757812 C 40.6875 223.664062 40.980469 223.707031 41.308594 223.894531 L 42.074219 224.335938 L 42.84375 224.777344 C 43.167969 224.96875 43.464844 225.269531 43.679688 225.609375 C 43.894531 225.945312 44.023438 226.316406 44.023438 226.644531 L 44.023438 244.203125 C 44.023438 244.53125 43.894531 244.75 43.679688 244.839844 L 43.292969 245.066406 L 43.238281 244.859375 C 43.117188 244.832031 42.984375 244.785156 42.84375 244.703125 L 42.074219 244.261719 L 41.308594 243.820312 C 40.980469 243.628906 40.6875 243.328125 40.472656 242.988281 C 40.257812 242.652344 40.125 242.28125 40.125 241.953125 L 40.125 224.394531 C 40.148438 224.207031 40.085938 223.984375 40.085938 223.984375 " fill-opacity="1" fill-rule="nonzero"/><path fill="rgb(38.42926%, 78.819275%, 92.549133%)" d="M 40.921875 244.042969 L 41.691406 244.488281 L 42.457031 244.929688 C 42.785156 245.121094 43.082031 245.15625 43.292969 245.066406 C 43.507812 244.976562 43.640625 244.757812 43.640625 244.433594 L 43.640625 226.871094 C 43.640625 226.542969 43.507812 226.171875 43.292969 225.832031 C 43.082031 225.496094 42.785156 225.195312 42.457031 225.003906 L 41.691406 224.5625 L 40.921875 224.121094 C 40.597656 223.929688 40.300781 223.894531 40.085938 223.984375 C 39.875 224.074219 39.742188 224.292969 39.742188 224.621094 L 39.742188 242.179688 C 39.742188 242.507812 39.875 242.878906 40.085938 243.214844 C 40.300781 243.554688 40.597656 243.855469 40.921875 244.042969 " fill-opacity="1" fill-rule="nonzero"/><path fill="rgb(97.648621%, 69.799805%, 73.728943%)" d="M 76.949219 257.367188 C 76.949219 257.367188 74.761719 255.40625 74.324219 257.847656 C 73.886719 260.292969 75.730469 270.394531 77.980469 267.230469 C 80.234375 264.070312 76.949219 257.367188 76.949219 257.367188 " fill-opacity="1" fill-rule="nonzero"/><path fill="rgb(97.648621%, 69.799805%, 73.728943%)" d="M 103.015625 242.320312 C 103.015625 242.320312 105.203125 237.832031 105.640625 239.765625 C 106.082031 241.703125 104.234375 253.9375 101.984375 253.375 C 99.730469 252.808594 103.015625 242.320312 103.015625 242.320312 " fill-opacity="1" fill-rule="nonzero"/><path fill="rgb(1.568604%, 2.349854%, 2.349854%)" d="M 98.203125 268.652344 L 81.585938 278.242188 C 81.585938 278.242188 72.660156 285.738281 64.617188 293.753906 C 59.738281 298.621094 56.554688 305.226562 56.554688 310.519531 L 56.554688 334.207031 L 123.234375 295.890625 L 123.234375 272.023438 C 123.234375 266.726562 120.054688 263.796875 115.171875 264.566406 C 107.128906 265.835938 98.203125 268.652344 98.203125 268.652344 " fill-opacity="1" fill-rule="nonzero"/><path fill="rgb(97.24884%, 64.309692%, 69.40918%)" d="M 98.207031 268.648438 C 98.207031 268.648438 95.898438 280.105469 89.894531 283.570312 C 83.890625 287.035156 81.582031 278.246094 81.582031 278.246094 L 83.195312 262.113281 L 96.59375 254.378906 L 98.207031 268.648438 " fill-opacity="1" fill-rule="nonzero"/><path fill="rgb(97.648621%, 69.799805%, 73.728943%)" d="M 103.675781 242.25 C 103.675781 249.863281 96.59375 266.285156 89.894531 270.152344 C 83.195312 274.023438 76.113281 265.773438 76.113281 258.164062 C 76.113281 245.789062 82.285156 238.410156 89.894531 234.015625 C 97.507812 229.621094 103.675781 229.871094 103.675781 242.25 " fill-opacity="1" fill-rule="nonzero"/><path fill="rgb(1.568604%, 2.349854%, 2.349854%)" d="M 104.410156 241.074219 C 104.457031 240.816406 104.527344 240.382812 104.589844 239.816406 C 105.175781 235.011719 105.695312 220.410156 89.898438 229.527344 C 74.601562 238.363281 74.601562 251.8125 75.152344 256.367188 C 75.246094 257.445312 75.4375 258.039062 75.4375 258.039062 L 76.125 257.300781 C 76.125 257.300781 77.355469 258.359375 77.957031 258.433594 C 78.558594 258.503906 78.710938 253.542969 79.46875 249.914062 C 80.226562 246.285156 82.4375 246.015625 82.4375 246.015625 C 82.4375 246.015625 85.222656 245.875 89.890625 243.089844 C 94.566406 240.480469 97.355469 237.402344 97.355469 237.402344 C 97.355469 237.402344 99.566406 235.121094 100.320312 237.875 C 101.078125 240.632812 101.230469 245.414062 101.832031 244.648438 C 102.4375 243.878906 103.675781 242.25 103.675781 242.25 L 104.355469 241.34375 C 104.359375 241.339844 104.378906 241.246094 104.410156 241.074219 " fill-opacity="1" fill-rule="nonzero"/><path fill="rgb(89.019775%, 91.369629%, 90.589905%)" d="M 81.386719 196.890625 L 125.390625 171.386719 L 125.390625 183.765625 L 81.386719 209.269531 L 81.386719 196.890625 " fill-opacity="1" fill-rule="nonzero"/><path fill="rgb(89.019775%, 91.369629%, 90.589905%)" d="M 78.101562 203.109375 C 78.101562 208.808594 73.484375 216.09375 67.785156 219.382812 C 62.085938 222.671875 57.46875 220.722656 57.46875 215.023438 C 57.46875 209.324219 62.085938 202.039062 67.785156 198.75 C 73.484375 195.457031 78.101562 197.410156 78.101562 203.109375 " fill-opacity="1" fill-rule="nonzero"/><path fill="rgb(30.198669%, 69.018555%, 90.589905%)" d="M 175.402344 193.144531 L 112.589844 229.898438 C 112.089844 230.1875 111.6875 230.824219 111.6875 231.320312 L 111.6875 255.582031 C 111.6875 256.0625 111.589844 256.59375 111.398438 257.144531 L 103.394531 280.273438 C 103.019531 281.355469 104.058594 281.542969 104.789062 280.527344 L 121.328125 257.625 C 121.957031 256.757812 122.734375 256.03125 123.539062 255.570312 L 175.402344 225.140625 C 175.902344 224.851562 176.304688 224.214844 176.304688 223.714844 L 176.304688 193.527344 C 176.304688 193.027344 175.902344 192.855469 175.402344 193.144531 " fill-opacity="1" fill-rule="nonzero"/><path fill="rgb(89.019775%, 91.369629%, 90.589905%)" d="M 113.007812 257.699219 C 113.257812 256.960938 113.386719 256.246094 113.386719 255.582031 L 113.386719 231.320312 L 174.605469 195.574219 L 174.605469 223.714844 L 122.6875 254.09375 C 121.675781 254.683594 120.730469 255.558594 119.953125 256.628906 L 107.324219 274.109375 L 113.007812 257.699219 " fill-opacity="1" fill-rule="nonzero"/><path fill="rgb(89.019775%, 91.369629%, 90.589905%)" d="M 116.601562 335.160156 L 66.253906 364.226562 C 65.164062 364.855469 64.28125 364.480469 64.28125 363.390625 L 64.28125 351.085938 C 64.28125 349.996094 65.164062 348.601562 66.253906 347.972656 L 116.601562 318.90625 C 117.691406 318.277344 118.574219 318.652344 118.574219 319.742188 L 118.574219 332.042969 C 118.574219 333.136719 117.691406 334.527344 116.601562 335.160156 " fill-opacity="1" fill-rule="nonzero"/><path fill="rgb(1.568604%, 2.349854%, 2.349854%)" d="M 90.78125 347.742188 C 90.542969 347.878906 90.308594 347.898438 90.167969 347.765625 L 88.324219 346.039062 C 87.753906 345.507812 87.558594 344.589844 87.761719 343.460938 C 87.96875 342.332031 88.558594 341.121094 89.421875 340.054688 L 92.453125 336.304688 C 92.792969 335.882812 93.25 335.710938 93.472656 335.921875 C 93.695312 336.132812 93.601562 336.644531 93.261719 337.0625 L 90.230469 340.816406 C 89.699219 341.472656 89.335938 342.222656 89.207031 342.921875 C 89.078125 343.621094 89.203125 344.1875 89.554688 344.519531 L 91.398438 346.246094 C 91.621094 346.457031 91.527344 346.964844 91.1875 347.386719 C 91.0625 347.542969 90.921875 347.660156 90.78125 347.742188 " fill-opacity="1" fill-rule="nonzero"/><path fill="rgb(1.568604%, 2.349854%, 2.349854%)" d="M 93.535156 338.488281 L 95.503906 333.40625 L 91.105469 336.210938 Z M 93.535156 338.488281 " fill-opacity="1" fill-rule="nonzero"/><path fill="rgb(1.568604%, 2.349854%, 2.349854%)" d="M 77.855469 344.09375 C 76.964844 344.609375 76.160156 345.398438 75.515625 346.292969 C 74.875 346.136719 74.070312 346.28125 73.175781 346.796875 C 71.117188 347.984375 69.449219 350.617188 69.449219 352.675781 C 69.449219 355.589844 75.515625 356.058594 75.515625 356.058594 C 75.515625 356.058594 81.636719 349.570312 81.585938 345.667969 C 81.585938 343.609375 79.917969 342.902344 77.855469 344.09375 " fill-opacity="1" fill-rule="nonzero"/><path fill="rgb(1.568604%, 2.349854%, 2.349854%)" d="M 99.253906 337.046875 C 101.445312 337.292969 104.285156 337.214844 105.90625 336.28125 C 107.527344 335.34375 110.367188 332.144531 112.554688 329.367188 C 110.367188 329.121094 107.527344 329.199219 105.90625 330.132812 C 104.285156 331.066406 101.445312 334.273438 99.253906 337.046875 Z M 105.90625 337.007812 C 103.597656 338.34375 99.769531 338 98.652344 337.859375 C 98.496094 337.839844 98.402344 337.722656 98.402344 337.539062 C 98.402344 337.355469 98.496094 337.128906 98.652344 336.929688 C 99.769531 335.5 103.597656 330.738281 105.90625 329.40625 C 108.214844 328.070312 112.042969 328.417969 113.160156 328.550781 C 113.316406 328.570312 113.410156 328.695312 113.410156 328.875 C 113.410156 329.058594 113.316406 329.285156 113.160156 329.484375 C 112.042969 330.910156 108.214844 335.675781 105.90625 337.007812 " fill-opacity="1" fill-rule="nonzero"/><path fill="rgb(1.568604%, 2.349854%, 2.349854%)" d="M 109.839844 330.9375 C 109.839844 332.835938 108.078125 335.390625 105.90625 336.644531 C 103.734375 337.898438 101.972656 337.375 101.972656 335.476562 C 101.972656 333.578125 103.734375 331.023438 105.90625 329.769531 C 108.078125 328.515625 109.839844 329.039062 109.839844 330.9375 " fill-opacity="1" fill-rule="nonzero"/><g clip-path="url(#clip-2)"><path fill="rgb(38.42926%, 78.819275%, 92.549133%)" d="M 130.875 145.625 C 129.753906 145.25 128.257812 145.492188 126.59375 146.441406 L 53.191406 188.804688 C 49.65625 190.84375 46.765625 195.398438 46.765625 198.933594 L 37.351562 193.59375 C 37.351562 190.027344 40.207031 185.503906 43.777344 183.464844 L 117.140625 141.074219 C 119.214844 139.914062 121.050781 139.8125 122.207031 140.628906 L 130.875 145.625 " fill-opacity="1" fill-rule="nonzero"/></g></svg>